<svg width="16" height="16" viewBox="0 0 16 16" fill="none" xmlns="http://www.w3.org/2000/svg">
<path d="M11.0692 7.36533C11.4753 6.67339 11.6506 5.8702 11.5699 5.072C11.4506 3.88267 10.7866 2.83133 9.70122 2.112L8.96455 3.22267C9.71055 3.71733 10.1646 4.422 10.2432 5.20533C10.2795 5.5694 10.2342 5.93697 10.1105 6.28132C9.98692 6.62567 9.7881 6.93814 9.52855 7.196L8.73389 7.99067L9.81255 8.30733C12.6339 9.134 12.6666 11.9713 12.6666 12H13.9999C13.9999 10.8073 13.3626 8.47667 11.0692 7.36533Z" fill="url(#paint0_linear_20_15)"/>
<path d="M6.33325 8.00002C7.80392 8.00002 8.99992 6.80402 8.99992 5.33335C8.99992 3.86269 7.80392 2.66669 6.33325 2.66669C4.86259 2.66669 3.66659 3.86269 3.66659 5.33335C3.66659 6.80402 4.86259 8.00002 6.33325 8.00002ZM6.33325 4.00002C7.06859 4.00002 7.66659 4.59802 7.66659 5.33335C7.66659 6.06869 7.06859 6.66669 6.33325 6.66669C5.59792 6.66669 4.99992 6.06869 4.99992 5.33335C4.99992 4.59802 5.59792 4.00002 6.33325 4.00002ZM7.33325 8.66669H5.33325C3.12725 8.66669 1.33325 10.4607 1.33325 12.6667V13.3334H2.66659V12.6667C2.66659 11.196 3.86259 10 5.33325 10H7.33325C8.80392 10 9.99992 11.196 9.99992 12.6667V13.3334H11.3333V12.6667C11.3333 10.4607 9.53925 8.66669 7.33325 8.66669Z" fill="url(#paint1_linear_20_15)"/>
<defs>
<linearGradient id="paint0_linear_20_15" x1="8.15792" y1="9.0645" x2="14.5405" y2="7.81974" gradientUnits="userSpaceOnUse">
<stop stop-color="#0C386C"/>
<stop offset="1" stop-color="#294F97"/>
</linearGradient>
<linearGradient id="paint1_linear_20_15" x1="0.2395" y1="10.1667" x2="11.4944" y2="6.30276" gradientUnits="userSpaceOnUse">
<stop stop-color="#0C386C"/>
<stop offset="1" stop-color="#294F97"/>
</linearGradient>
</defs>
</svg>
