<svg width="16" height="17" viewBox="0 0 16 17" fill="none" xmlns="http://www.w3.org/2000/svg">
<path d="M8.66659 1.83331V3.85331C10.9266 4.17998 12.6666 6.11331 12.6666 8.46665C12.6666 9.06665 12.5466 9.63331 12.3466 10.16L14.0799 11.18C14.4533 10.3533 14.6666 9.43331 14.6666 8.46665C14.6666 5.01331 12.0333 2.16665 8.66659 1.83331ZM7.99992 13.1333C5.41992 13.1333 3.33325 11.0466 3.33325 8.46665C3.33325 6.11331 5.07325 4.17998 7.33325 3.85331V1.83331C3.95992 2.16665 1.33325 5.00665 1.33325 8.46665C1.33325 12.1466 4.31325 15.1333 7.99325 15.1333C10.1999 15.1333 12.1533 14.06 13.3666 12.4066L11.6333 11.3866C11.1983 11.9327 10.6457 12.3734 10.0165 12.6758C9.38736 12.9783 8.69799 13.1347 7.99992 13.1333Z" fill="url(#paint0_linear_11_80)"/>
<defs>
<linearGradient id="paint0_linear_11_80" x1="-0.125085" y1="11.1849" x2="14.6578" y2="5.75785" gradientUnits="userSpaceOnUse">
<stop stop-color="#0C386C"/>
<stop offset="1" stop-color="#294F97"/>
</linearGradient>
</defs>
</svg>
