<svg width="16" height="17" viewBox="0 0 16 17" fill="none" xmlns="http://www.w3.org/2000/svg">
<path d="M12 5.86664C12.3537 5.86664 12.6928 5.72616 12.9428 5.47611C13.1929 5.22607 13.3334 4.88693 13.3334 4.53331C13.3334 4.17968 13.1929 3.84054 12.9428 3.5905C12.6928 3.34045 12.3537 3.19997 12 3.19997C11.6464 3.19997 11.3073 3.34045 11.0572 3.5905C10.8072 3.84054 10.6667 4.17968 10.6667 4.53331C10.6667 4.88693 10.8072 5.22607 11.0572 5.47611C11.3073 5.72616 11.6464 5.86664 12 5.86664ZM6.6187 8.02664C6.6885 8.38926 6.68259 8.7624 6.60137 9.12264L9.96137 10.814C10.38 10.318 10.9651 9.99167 11.6071 9.89622C12.249 9.80077 12.9038 9.94272 13.4486 10.2955C13.9934 10.6482 14.3908 11.1876 14.5665 11.8124C14.7421 12.4372 14.6838 13.1046 14.4025 13.6895C14.1212 14.2744 13.6363 14.7367 13.0386 14.9897C12.4409 15.2426 11.7715 15.2689 11.1557 15.0636C10.54 14.8583 10.0203 14.4355 9.69406 13.8745C9.36778 13.3134 9.25731 12.6526 9.38337 12.016L5.99003 10.308C5.62798 10.714 5.15039 10.9996 4.62135 11.1265C4.09231 11.2533 3.53714 11.2153 3.03032 11.0175C2.52351 10.8198 2.08931 10.4717 1.78598 10.0201C1.48265 9.56848 1.32471 9.0349 1.33334 8.49094C1.34198 7.94698 1.51678 7.41867 1.83429 6.97691C2.15181 6.53515 2.59684 6.20107 3.10967 6.0195C3.62251 5.83793 4.17861 5.81756 4.70335 5.96112C5.2281 6.10468 5.69638 6.4053 6.04537 6.82264L9.4027 5.14131C9.25468 4.50938 9.3422 3.84517 9.64885 3.27316C9.95551 2.70115 10.4603 2.26061 11.0685 2.03411C11.6767 1.80761 12.3466 1.81071 12.9527 2.04281C13.5589 2.27492 14.0595 2.7201 14.3609 3.29492C14.6622 3.86974 14.7436 4.53474 14.5897 5.16527C14.4359 5.79579 14.0574 6.34857 13.5251 6.71998C12.9929 7.09139 12.3434 7.25595 11.6985 7.1828C11.0537 7.10965 10.4576 6.80382 10.022 6.32264L6.6187 8.02664ZM4.00003 9.86664C4.35366 9.86664 4.6928 9.72616 4.94284 9.47611C5.19289 9.22607 5.33337 8.88693 5.33337 8.53331C5.33337 8.17968 5.19289 7.84055 4.94284 7.5905C4.6928 7.34045 4.35366 7.19997 4.00003 7.19997C3.64641 7.19997 3.30727 7.34045 3.05723 7.5905C2.80718 7.84055 2.6667 8.17968 2.6667 8.53331C2.6667 8.88693 2.80718 9.22607 3.05723 9.47611C3.30727 9.72616 3.64641 9.86664 4.00003 9.86664ZM12 13.8666C12.3537 13.8666 12.6928 13.7262 12.9428 13.4761C13.1929 13.2261 13.3334 12.8869 13.3334 12.5333C13.3334 12.1797 13.1929 11.8405 12.9428 11.5905C12.6928 11.3404 12.3537 11.2 12 11.2C11.6464 11.2 11.3073 11.3404 11.0572 11.5905C10.8072 11.8405 10.6667 12.1797 10.6667 12.5333C10.6667 12.8869 10.8072 13.2261 11.0572 13.4761C11.3073 13.7262 11.6464 13.8666 12 13.8666Z" fill="url(#paint0_linear_20_18)"/>
<defs>
<linearGradient id="paint0_linear_20_18" x1="-0.125283" y1="11.242" x2="14.6662" y2="5.82587" gradientUnits="userSpaceOnUse">
<stop stop-color="#0C386C"/>
<stop offset="1" stop-color="#294F97"/>
</linearGradient>
</defs>
</svg>
