<svg 
          width="9.916666984558105" 
          height="12.980001449584961" fill="none" 
          xmlns="http://www.w3.org/2000/svg">
          <path d="M 4.958333492279053 0 C 2.217083485467096 0 0 2.086666845169156 0 4.666666895248067 C 0 7.446667082279905 3.1308332344179997 11.280000921267986 4.419999979564117 12.740001030928283 C 4.703333326202058 13.06000103944988 5.220417154041085 13.06000103944988 5.503750500679026 12.740001030928283 C 6.785833834580021 11.280000921267986 9.916666984558105 7.446667082279905 9.916666984558105 4.666666895248067 C 9.916666984558105 2.086666845169156 7.699583499091009 0 4.958333492279053 0 Z M 4.958333492279053 6.333333643550948 C 4.48867926979539 6.333333643550949 4.038260882407688 6.157738907751732 3.706165194107988 5.84517825465002 C 3.3740695058082872 5.532617601548308 3.187500102179391 5.108694406243616 3.187500102179391 4.666666895248067 C 3.187500102179391 4.224639384252518 3.3740695058082872 3.800716188947826 3.706165194107988 3.488155535846114 C 4.038260882407688 3.1755948827444023 4.48867926979539 3.000000146945186 4.958333492279053 3.000000146945186 C 5.427987714762716 3.0000001469451862 5.878406102150417 3.1755948827444023 6.210501790450118 3.488155535846114 C 6.542597478749818 3.800716188947826 6.729166882378714 4.224639384252518 6.729166882378714 4.666666895248067 C 6.729166882378714 5.108694406243616 6.542597478749818 5.532617601548308 6.210501790450118 5.84517825465002 C 5.878406102150417 6.157738907751732 5.427987714762716 6.333333643550948 4.958333492279053 6.333333643550948 L 4.958333492279053 6.333333643550948 Z" fill="rgb(255,255,255)"/>
        </svg>