<svg width="26" height="24" viewBox="0 0 26 24" fill="none" xmlns="http://www.w3.org/2000/svg">
<path d="M6.79337 13.5001C7.66233 13.5001 8.36676 12.8285 8.36676 12.0001C8.36676 11.1717 7.66233 10.5001 6.79337 10.5001C5.9244 10.5001 5.21997 11.1717 5.21997 12.0001C5.21997 12.8285 5.9244 13.5001 6.79337 13.5001Z" fill="#363B64"/>
<path d="M13.0868 13.5001C13.9558 13.5001 14.6602 12.8285 14.6602 12.0001C14.6602 11.1717 13.9558 10.5001 13.0868 10.5001C12.2179 10.5001 11.5134 11.1717 11.5134 12.0001C11.5134 12.8285 12.2179 13.5001 13.0868 13.5001Z" fill="#363B64"/>
<path d="M19.3805 13.5001C20.2495 13.5001 20.9539 12.8285 20.9539 12.0001C20.9539 11.1717 20.2495 10.5001 19.3805 10.5001C18.5116 10.5001 17.8071 11.1717 17.8071 12.0001C17.8071 12.8285 18.5116 13.5001 19.3805 13.5001Z" fill="#363B64"/>
</svg>
