<svg width="16" height="17" viewBox="0 0 16 17" fill="none" xmlns="http://www.w3.org/2000/svg">
<g clip-path="url(#clip0_11_64)">
<path fill-rule="evenodd" clip-rule="evenodd" d="M8 2.03333C6.27609 2.03333 4.62279 2.71814 3.40381 3.93713C2.18482 5.15612 1.5 6.80942 1.5 8.53333C1.5 10.2572 2.18482 11.9105 3.40381 13.1295C4.62279 14.3485 6.27609 15.0333 8 15.0333C9.72391 15.0333 11.3772 14.3485 12.5962 13.1295C13.8152 11.9105 14.5 10.2572 14.5 8.53333C14.5 6.80942 13.8152 5.15612 12.5962 3.93713C11.3772 2.71814 9.72391 2.03333 8 2.03333ZM0 8.53333C0 6.41159 0.842855 4.37676 2.34315 2.87647C3.84344 1.37618 5.87827 0.533325 8 0.533325C10.1217 0.533325 12.1566 1.37618 13.6569 2.87647C15.1571 4.37676 16 6.41159 16 8.53333C16 10.6551 15.1571 12.6899 13.6569 14.1902C12.1566 15.6905 10.1217 16.5333 8 16.5333C5.87827 16.5333 3.84344 15.6905 2.34315 14.1902C0.842855 12.6899 0 10.6551 0 8.53333ZM6.5 8.28333C6.5 8.08441 6.57902 7.89365 6.71967 7.753C6.86032 7.61234 7.05109 7.53333 7.25 7.53333H8.25C8.44891 7.53333 8.63968 7.61234 8.78033 7.753C8.92098 7.89365 9 8.08441 9 8.28333V11.0333H9.25C9.44891 11.0333 9.63968 11.1123 9.78033 11.253C9.92098 11.3936 10 11.5844 10 11.7833C10 11.9822 9.92098 12.173 9.78033 12.3137C9.63968 12.4543 9.44891 12.5333 9.25 12.5333H7.25C7.05109 12.5333 6.86032 12.4543 6.71967 12.3137C6.57902 12.173 6.5 11.9822 6.5 11.7833C6.5 11.5844 6.57902 11.3936 6.71967 11.253C6.86032 11.1123 7.05109 11.0333 7.25 11.0333H7.5V9.03333H7.25C7.05109 9.03333 6.86032 8.95431 6.71967 8.81365C6.57902 8.673 6.5 8.48224 6.5 8.28333ZM8 6.53333C8.26522 6.53333 8.51957 6.42797 8.70711 6.24043C8.89464 6.0529 9 5.79854 9 5.53333C9 5.26811 8.89464 5.01375 8.70711 4.82622C8.51957 4.63868 8.26522 4.53333 8 4.53333C7.73478 4.53333 7.48043 4.63868 7.29289 4.82622C7.10536 5.01375 7 5.26811 7 5.53333C7 5.79854 7.10536 6.0529 7.29289 6.24043C7.48043 6.42797 7.73478 6.53333 8 6.53333Z" fill="url(#paint0_linear_11_64)"/>
</g>
<defs>
<linearGradient id="paint0_linear_11_64" x1="-1.75" y1="11.7833" x2="16" y2="5.28332" gradientUnits="userSpaceOnUse">
<stop stop-color="#0C386C"/>
<stop offset="1" stop-color="#294F97"/>
</linearGradient>
<clipPath id="clip0_11_64">
<rect width="16" height="16" fill="white" transform="translate(0 0.533325)"/>
</clipPath>
</defs>
</svg>
