<svg width="16" height="17" viewBox="0 0 16 17" fill="none" xmlns="http://www.w3.org/2000/svg">
<path d="M3.03341 11.5667V14.4L5.86675 13.7L8.00008 15.8334L10.1334 13.7L12.9667 14.4V11.5667L15.8334 10.8334L14.4001 8.00002L15.8334 5.16669L12.9667 4.43335V1.60002L10.1334 2.30002L8.00008 0.166687L5.86675 2.30002L3.03341 1.60002V4.43335L0.166748 5.16669L1.60008 8.00002L0.166748 10.8334L3.03341 11.5667ZM2.86675 7.36669L2.23341 6.06669L3.36675 5.80002C3.70008 5.73335 3.96119 5.57224 4.15008 5.31669C4.33897 5.06113 4.43341 4.76669 4.43341 4.43335V3.43335L5.50008 3.73335H5.86675C6.24453 3.73335 6.57786 3.58891 6.86675 3.30002L8.00008 2.16669L9.13342 3.30002C9.4223 3.58891 9.75564 3.73335 10.1334 3.73335C10.2667 3.73335 10.389 3.71113 10.5001 3.66669L11.5667 3.43335V4.43335C11.5667 4.76669 11.6612 5.06113 11.8501 5.31669C12.039 5.57224 12.3001 5.73335 12.6334 5.80002L13.7667 6.06669L13.1334 7.36669C12.9112 7.78891 12.9112 8.21113 13.1334 8.63335L13.7667 9.93335L12.6334 10.2C12.3001 10.2667 12.039 10.4278 11.8501 10.6834C11.6612 10.9389 11.5667 11.2334 11.5667 11.5667V12.5667L10.5001 12.2667H10.1334C9.75564 12.2667 9.4223 12.4111 9.13342 12.7L8.00008 13.8334L6.86675 12.7C6.57786 12.4111 6.24453 12.2667 5.86675 12.2667C5.73342 12.2667 5.61119 12.2889 5.50008 12.3334L4.43341 12.5667V11.5667C4.43341 11.2334 4.33897 10.9389 4.15008 10.6834C3.96119 10.4278 3.70008 10.2667 3.36675 10.2L2.23341 9.93335L2.86675 8.63335C3.08897 8.21113 3.08897 7.78891 2.86675 7.36669ZM7.30008 10.4334L10.6334 7.06669C10.9445 6.75558 10.9445 6.42224 10.6334 6.06669C10.3001 5.7778 9.96675 5.7778 9.63342 6.06669L7.30008 8.43335L6.36675 7.50002C6.03341 7.21113 5.70008 7.21113 5.36675 7.50002C5.07786 7.83335 5.07786 8.16669 5.36675 8.50002L7.30008 10.4334Z" fill="url(#paint0_linear_11_54)"/>
<defs>
<linearGradient id="paint0_linear_11_54" x1="-1.5468" y1="11.1823" x2="15.8334" y2="4.81772" gradientUnits="userSpaceOnUse">
<stop stop-color="#0C386C"/>
<stop offset="1" stop-color="#294F97"/>
</linearGradient>
</defs>
</svg>
