<svg 
          width="15.333331108093262" 
          height="13.333335876464844" fill="none" 
          xmlns="http://www.w3.org/2000/svg">
          <path d="M 3.484847979112105 8.000001525878908 C 3.6696958156207766 8.000001525878908 3.8469726229329324 8.0702395632721 3.9776797735366514 8.195263836274899 C 4.108386924140371 8.320288109277698 4.181817574934526 8.489857286266773 4.181817574934526 8.666668319702149 C 4.181817574934526 8.843479353137525 4.108386924140371 9.0130485301266 3.9776797735366514 9.138072803129399 C 3.8469726229329324 9.263097076132198 3.6696958156207766 9.333335113525392 3.484847979112105 9.333335113525392 C 3.0272112213664415 9.333335113525392 2.574055500428255 9.24711618368424 2.1512542694831818 9.079600476506313 C 1.7284530385381087 8.912084769328386 1.344286386694864 8.666552865483197 1.0206883423073703 8.357024197328428 C 0.3671525581318066 7.731902802512105 1.5475833854914823e-16 6.884056291717844 0 6.00000114440918 C 3.0951667709829645e-16 5.115945997100516 0.3671525581318066 4.268099486306255 1.0206883423073703 3.6429780914899315 C 1.674224126482934 3.0178566966736073 2.56060881734006 2.6666671752929694 3.484847979112105 2.666667175292969 C 4.181817574934526 1.1000002733866496 5.784847612091994 0 7.666665554046631 0 C 10.057271314245275 0 12.015755838625358 1.7733335698445445 12.196967926892368 4.020000588734911 L 12.545452724803578 4.000000762939454 C 13.284844070838265 4.000000762939455 13.993951300086888 4.280952276729226 14.516779902501764 4.781049368740423 C 15.03960850491664 5.2811464607516205 15.333331108093262 5.959423804490916 15.333331108093262 6.666667938232422 C 15.333331108093262 7.373912071973928 15.03960850491664 8.052189415713224 14.516779902501764 8.552286507724421 C 13.993951300086888 9.052383599735618 13.284844070838265 9.33333511352539 12.545452724803578 9.333335113525392 L 11.848483128981158 9.333335113525392 C 11.663635292472486 9.333335113525392 11.486357820478327 9.263097076132198 11.355650669874608 9.138072803129399 C 11.224943519270889 9.0130485301266 11.151513533158736 8.843479353137525 11.151513533158736 8.666668319702149 C 11.151513533158736 8.489857286266773 11.224943519270889 8.320288109277698 11.355650669874608 8.195263836274899 C 11.486357820478327 8.0702395632721 11.663635292472486 8.000001525878908 11.848483128981158 8.000001525878908 L 12.545452724803578 8.000001525878908 C 12.915148397820921 8.000001525878908 13.269702012445233 7.859525451092521 13.53111631365267 7.609476905086923 C 13.792530614860109 7.359428359081324 13.93939191644842 7.020290005103175 13.93939191644842 6.666667938232422 C 13.93939191644842 6.313045871361669 13.792530614860109 5.9739075173835205 13.53111631365267 5.723858971377922 C 13.269702012445233 5.473810425372323 12.915148397820921 5.333334350585938 12.545452724803578 5.333334350585938 L 11.151513533158736 5.333334350585938 L 11.151513533158736 4.666667556762696 C 11.151513533158738 3.7826124094540323 10.78436097502693 2.934765898659771 10.130825190851366 2.309644503843447 C 9.477289406675803 1.6845231090271229 8.590904715818676 1.3333335876464847 7.666665554046631 1.3333335876464845 C 5.924241564490578 1.3333335876464847 4.495453843203466 2.5466669489542255 4.223635710802951 4.12666717402135 C 3.993635735042175 4.0466671605507 3.742726732889811 4.000000762939454 3.484847979112105 4.000000762939454 C 2.930304490357403 4.000000762939454 2.3984737256942776 4.210714229401924 2.0063522634974644 4.585787058344431 C 1.6142308013006512 4.960859887286938 1.3939391916448427 5.469568063971269 1.393939191644842 6.00000114440918 C 1.393939191644843 6.530434224847091 1.6142308013006512 7.039142401531422 2.0063522634974644 7.414215230473929 C 2.3984737256942776 7.789288059416436 2.930304490357403 8.000001525878908 3.484847979112105 8.000001525878908 L 3.484847979112105 8.000001525878908 Z M 6.272726362401789 10.666668701171876 C 6.642422035419132 10.666668701171876 6.996975650043444 10.807144775958262 7.258389951250882 11.05719332196386 C 7.51980425245832 11.307241867969458 7.666665554046631 11.646380221947608 7.666665554046631 12.00000228881836 C 7.666665554046631 12.353624355689112 7.51980425245832 12.692762709667262 7.258389951250882 12.94281125567286 C 6.996975650043444 13.192859801678457 6.642422035419132 13.333335876464844 6.272726362401789 13.333335876464844 C 5.903030689384446 13.333335876464844 5.548477074760134 13.192859801678457 5.287062773552696 12.94281125567286 C 5.025648472345258 12.692762709667262 4.878787170756947 12.353624355689112 4.878787170756947 12.00000228881836 C 4.878787170756947 11.646380221947608 5.025648472345258 11.307241867969458 5.287062773552696 11.05719332196386 C 5.548477074760134 10.807144775958262 5.903030689384446 10.666668701171876 6.272726362401789 10.666668701171876 Z M 9.409089543602684 9.333335113525392 C 9.686361287980036 9.333335113525392 9.952276836482099 9.438692482539626 10.148337567580505 9.62622889701088 C 10.344398298678911 9.813765311482133 10.454543937336313 10.0681187640413 10.454543937336314 10.333335304260254 C 10.454543937336313 10.598551844479209 10.344398298678911 10.852905297038376 10.148337567580505 11.04044171150963 C 9.952276836482099 11.227978125980883 9.686361287980036 11.333335494995119 9.409089543602684 11.333335494995119 C 9.131817799225333 11.333335494995119 8.865902250723268 11.227978125980883 8.669841519624862 11.04044171150963 C 8.473780788526456 10.852905297038376 8.363635149869054 10.598551844479209 8.363635149869053 10.333335304260254 C 8.363635149869053 10.0681187640413 8.473780788526456 9.813765311482133 8.669841519624862 9.62622889701088 C 8.865902250723268 9.438692482539626 9.131817799225333 9.333335113525393 9.409089543602684 9.333335113525392 L 9.409089543602684 9.333335113525392 Z M 6.621211160313 6.666667938232422 C 6.898482904690351 6.666667938232423 7.164398453192414 6.772024671463658 7.3604591842908205 6.9595610859349115 C 7.556519915389227 7.147097500406165 7.66666555404663 7.40145158874833 7.666665554046631 7.666668128967285 C 7.66666555404663 7.931884669186241 7.556519915389227 8.186238757528407 7.3604591842908205 8.373775171999661 C 7.164398453192414 8.561311586470914 6.898482904690351 8.666668319702147 6.621211160313 8.666668319702149 C 6.343939415935649 8.666668319702147 6.078023867433585 8.561311586470914 5.8819631363351785 8.373775171999661 C 5.685902405236772 8.186238757528407 5.575756766579369 7.931884669186241 5.575756766579368 7.666668128967285 C 5.575756766579368 7.40145158874833 5.685902405236772 7.147097500406165 5.8819631363351785 6.9595610859349115 C 6.078023867433585 6.772024671463658 6.343939415935649 6.666667938232423 6.621211160313 6.666667938232422 Z" fill="rgb(255,255,255)"/>
        </svg>