<svg width="24" height="24" viewBox="0 0 24 24" fill="none" xmlns="http://www.w3.org/2000/svg">
<path d="M17.9999 9C18.6091 9.00002 19.2038 8.8146 19.705 8.4684C20.2062 8.1222 20.5902 7.63162 20.8058 7.06191C21.0214 6.49219 21.0585 5.87034 20.9121 5.27904C20.7657 4.68774 20.4428 4.15501 19.9863 3.7517C19.5297 3.34839 18.9613 3.09362 18.3564 3.02125C17.7516 2.94888 17.139 3.06235 16.6003 3.34658C16.0615 3.6308 15.622 4.0723 15.3402 4.61238C15.0585 5.15245 14.9478 5.7655 15.0229 6.37L8.08293 9.84C7.65916 9.43136 7.12453 9.15642 6.54562 9.04945C5.96672 8.94247 5.36914 9.00819 4.82731 9.2384C4.28549 9.46862 3.82338 9.85317 3.49854 10.3441C3.1737 10.8351 3.00049 11.4108 3.00049 11.9995C3.00049 12.5882 3.1737 13.1639 3.49854 13.6549C3.82338 14.1458 4.28549 14.5304 4.82731 14.7606C5.36914 14.9908 5.96672 15.0565 6.54562 14.9496C7.12453 14.8426 7.65916 14.5676 8.08293 14.159L15.0229 17.629C14.9354 18.3312 15.099 19.0418 15.4847 19.6351C15.8704 20.2284 16.4535 20.6663 17.1308 20.8713C17.8081 21.0763 18.5361 21.0353 19.1861 20.7555C19.8361 20.4757 20.3663 19.9751 20.6829 19.3422C20.9995 18.7093 21.0822 17.9849 20.9164 17.2969C20.7505 16.6089 20.3468 16.0017 19.7766 15.5826C19.2064 15.1635 18.5064 14.9595 17.8003 15.0066C17.0942 15.0537 16.4274 15.3489 15.9179 15.84L8.97793 12.37C9.00816 12.1243 9.00816 11.8757 8.97793 11.63L15.9179 8.16C16.4559 8.68 17.1899 9 17.9999 9Z" fill="#A098AE"/>
</svg>
