<svg 
          width="14.092975616455078" 
          height="14.092973709106445" fill="none" 
          xmlns="http://www.w3.org/2000/svg">
          <path d="M 7.796487808227539 1.0464876665954845 L 7.046487808227539 3.246987380223075 L 6.296487808227539 1.0464876665954845 C 6.256048128940165 0.927308027858847 6.244592988397926 0.8002070223106081 6.263071060180664 0.6757172027643227 C 6.281549131963402 0.5512273832180372 6.329428626224399 0.4329332644919489 6.4027419090271 0.33063800628434153 C 6.476055191829801 0.22834274807673416 6.572690684348345 0.1449918122307366 6.684641361236572 0.08749221571309022 C 6.7965920381248 0.029992619195443847 6.920634090900421 0 7.046487808227539 0 C 7.172341525554657 0 7.296383578330278 0.029992619195443847 7.408334255218506 0.08749221571309022 C 7.520284932106733 0.1449918122307366 7.6169204246252775 0.22834274807673416 7.6902337074279785 0.33063800628434153 C 7.7635469902306795 0.4329332644919489 7.811426484491676 0.5512273832180372 7.829904556274414 0.6757172027643227 C 7.848382628057152 0.8002070223106081 7.836927487514913 0.927308027858847 7.796487808227539 1.0464876665954845 Z M 1.046487808227539 6.296486956058505 L 3.246987819671631 7.046486854553223 L 1.046487808227539 7.79648675304794 C 0.9273081533610821 7.836926426862193 0.8002071306109428 7.848381565854089 0.675717294216156 7.82990349657218 C 0.5512274578213692 7.811425427290271 0.4329333230853081 7.763545939509304 0.33063805103302 7.69023266662885 C 0.22834277898073196 7.616919393748396 0.1449918318539858 7.520283914308536 0.08749222755432129 7.408333252571755 C 0.02999262325465679 7.296382590834975 3.3306690738754696e-16 7.172340554847251 0 7.046486854553223 C 3.3306690738754696e-16 6.920633154259194 0.02999262325465679 6.796591118271471 0.08749222755432129 6.684640456534691 C 0.1449918318539858 6.572689794797911 0.22834277898073196 6.47605431535805 0.33063805103302 6.402741042477596 C 0.4329333230853081 6.329427769597142 0.5512274578213692 6.281548281816175 0.675717294216156 6.263070212534266 C 0.8002071306109428 6.244592143252357 0.9273081533610821 6.2560472822442525 1.046487808227539 6.296486956058505 Z M 6.296487808227539 13.046486042510962 L 7.046487808227539 10.84598632888337 L 7.796487808227539 13.046486042510962 C 7.836927487514913 13.1656656812476 7.848382628057152 13.292766150354106 7.829904556274414 13.417255969900392 C 7.811426484491676 13.541745789446678 7.7635469902306795 13.660040086986676 7.6902337074279785 13.762335345194284 C 7.6169204246252775 13.864630603401892 7.520284932106733 13.94798261213135 7.408334255218506 14.005482208648996 C 7.296383578330278 14.062981805166642 7.172341525554657 14.092973709106445 7.046487808227539 14.092973709106445 C 6.920634090900421 14.092973709106445 6.7965920381248 14.062981805166642 6.684641361236572 14.005482208648996 C 6.572690684348345 13.94798261213135 6.476055191829801 13.864630603401892 6.4027419090271 13.762335345194284 C 6.329428626224399 13.660040086986676 6.281549131963402 13.541745789446678 6.263071060180664 13.417255969900392 C 6.244592988397926 13.292766150354106 6.256048128940165 13.1656656812476 6.296487808227539 13.046486042510962 Z M 13.046487808227539 7.794986861969808 L 10.845987796783447 7.044986963475091 L 13.046487808227539 6.294987064980373 C 13.165667463093996 6.2545473911661205 13.292767949402332 6.243091536918584 13.41725778579712 6.261569606200493 C 13.541747622191906 6.280047675482402 13.660041935741901 6.32792716326337 13.76233720779419 6.401240436143824 C 13.864632479846478 6.474553709024278 13.94798449985683 6.5711899037197785 14.005484104156494 6.683140565456559 C 14.062983708456159 6.795091227193339 14.092975616455078 6.919133263181062 14.092975616455078 7.044986963475091 C 14.092975616455078 7.170840663769119 14.062983708456159 7.2948819845012025 14.005484104156494 7.406832646237983 C 13.94798449985683 7.518783307974763 13.864632479846478 7.615419502670264 13.76233720779419 7.688732775550718 C 13.660041935741901 7.762046048431172 13.541747622191906 7.8099255362121385 13.41725778579712 7.828403605494048 C 13.292767949402332 7.846881674775957 13.165667463093996 7.835426535784061 13.046487808227539 7.794986861969808 Z M 3.3339879512786865 2.273487617834767 L 4.3592376708984375 4.359237080917568 L 2.27348792552948 3.3339875000555 C 2.160140745341778 3.278526248002851 2.0616705995053053 3.1968079278597763 1.9862651824951172 3.0956271273470257 C 1.910859765484929 2.994446326834275 1.8606977490708232 2.8767264801564236 1.839949607849121 2.752255424894832 C 1.819201466627419 2.6277843696332406 1.8284667022526264 2.500158701720955 1.86697518825531 2.3799895403332916 C 1.9054836742579937 2.259820378945628 1.9721225649118423 2.1505797425996223 2.0613512992858887 2.0613510203018266 C 2.150580033659935 1.9721222980040307 2.2598206847906113 1.9054834163691148 2.3799898624420166 1.8669749355781842 C 2.500159040093422 1.8284664547872536 2.627784725278616 1.8192012204160068 2.7522557973861694 1.8399493588296476 C 2.876726869493723 1.8606974972432884 2.9944467321038246 1.9108595068684482 3.095627546310425 1.9862649136732387 C 3.196808360517025 2.0616703204780293 3.2785266917198896 2.1601404529875152 3.3339879512786865 2.273487617834767 L 3.3339879512786865 2.273487617834767 Z M 2.27348792552948 10.758235905884058 L 4.3592376708984375 9.732986325021992 L 3.3339879512786865 11.818736860988253 C 3.2785266917198896 11.932084025835504 3.196808360517025 12.03055380071717 3.095627546310425 12.10595920752196 C 2.9944467321038246 12.181364614326752 2.876726869493723 12.231526623951911 2.7522557973861694 12.252274762365552 C 2.627784725278616 12.273022900779193 2.500159040093422 12.263756593524485 2.3799898624420166 12.225248112733555 C 2.2598206847906113 12.186739631942624 2.150580033659935 12.120101823191169 2.0613512992858887 12.030873100893373 C 1.9721225649118423 11.941644378595578 1.9054836742579937 11.83240302699393 1.86697518825531 11.712233865606267 C 1.8284667022526264 11.592064704218604 1.819201466627419 11.4644386786785 1.839949607849121 11.339967623416907 C 1.8606977490708232 11.215496568155315 1.910859765484929 11.097777079105285 1.9862651824951172 10.996596278592534 C 2.0616705995053053 10.895415478079784 2.160140745341778 10.813697157936707 2.27348792552948 10.758235905884058 L 2.27348792552948 10.758235905884058 Z M 10.758237361907959 11.818736860988253 L 9.732987642288208 9.732986325021992 L 11.818738460540771 10.758235905884058 C 11.932085640728474 10.813697157936707 12.030555428937078 10.895415478079784 12.105960845947266 10.996596278592534 C 12.181366262957454 11.097777079105285 12.23152827937156 11.215496568155315 12.252276420593262 11.339967623416907 C 12.273024561814964 11.4644386786785 12.26375825330615 11.592064704218604 12.225249767303467 11.712233865606267 C 12.186741281300783 11.83240302699393 12.12010346353054 11.941644378595578 12.030874729156494 12.030873100893373 C 11.941645994782448 12.120101823191169 11.832404628396034 12.186739631942624 11.712235450744629 12.225248112733555 C 11.592066273093224 12.263756593524485 11.464440230280161 12.273022900779193 11.339969158172607 12.252274762365552 C 11.215498086065054 12.231526623951911 11.097778581082821 12.181364614326752 10.99659776687622 12.10595920752196 C 10.89541695266962 12.03055380071717 10.813698621466756 11.932084025835504 10.758237361907959 11.818736860988253 L 10.758237361907959 11.818736860988253 Z M 11.817987442016602 3.332487251349548 L 9.73148775100708 4.358487493006322 L 10.757487773895264 2.271987369128815 C 10.81294903345406 2.158640204281563 10.894667364656925 2.0601704293998973 10.995848178863525 1.9847650225951066 C 11.097028993070126 1.909359615790316 11.214748498052359 1.8591976061651563 11.339219570159912 1.8384494677515155 C 11.463690642267466 1.8177013293378748 11.591316685080528 1.8269665637091215 11.711485862731934 1.865475044500052 C 11.831655040383339 1.9039835252909827 11.940894976258278 1.9706224069258986 12.030123710632324 2.0598511292236945 C 12.11935244500637 2.14907985152149 12.185991693288088 2.258320130239676 12.224500179290771 2.3784892916273392 C 12.263008665293455 2.4986584530150027 12.272273543290794 2.6262844785551085 12.251525402069092 2.7507555338167 C 12.23077726084739 2.8752265890782915 12.180615244433284 2.992946435756143 12.105209827423096 3.0941272362688936 C 12.029804410412908 3.195308036781644 11.931334622204304 3.2770259992968986 11.817987442016602 3.332487251349548 L 11.817987442016602 3.332487251349548 Z M 7.046487808227539 10.42148639777945 C 5.18573784828186 10.42148639777945 3.671487808227539 8.9072365626643 3.671487808227539 7.046486854553223 C 3.671487808227539 5.185737146442145 5.18573784828186 3.6714873113269952 7.046487808227539 3.6714873113269952 C 8.907237768173218 3.6714873113269952 10.421487808227539 5.185737146442145 10.421487808227539 7.046486854553223 C 10.421487808227539 8.9072365626643 8.907237768173218 10.42148639777945 7.046487808227539 10.42148639777945 Z M 7.046487808227539 5.1714871083164295 C 6.012237846851349 5.1714871083164295 5.171487808227539 6.012237033152812 5.171487808227539 7.046486854553223 C 5.171487808227539 8.080736675953633 6.012237846851349 8.921486600790017 7.046487808227539 8.921486600790017 C 8.08073776960373 8.921486600790017 8.921487808227539 8.080736675953633 8.921487808227539 7.046486854553223 C 8.921487808227539 6.012237033152812 8.08073776960373 5.1714871083164295 7.046487808227539 5.1714871083164295 Z" fill="rgb(255,255,255)"/>
        </svg>