<svg 
          width="24.553592681884766" 
          height="25.05417823791504" fill="none" 
          xmlns="http://www.w3.org/2000/svg">
          <path d="M 13.583489477479981 1.8604227229716066 L 12.276796340942383 5.772422644044491 L 10.970103204404785 1.8604227229716066 C 10.899646869246661 1.6485477863634006 10.87968906454717 1.4225904183193423 10.911882623980441 1.2012751592336661 C 10.944076183413712 0.97995990014799 11.027494592122691 0.7696592215094279 11.155225210063131 0.5878009646980316 C 11.28295582800357 0.4059427078866352 11.451319741096787 0.257763250088225 11.646366649257567 0.1555417339272719 C 11.841413557418347 0.05332021776631886 12.057526756090265 0 12.276796340942383 0 C 12.4960659257945 0 12.71217912446642 0.05332021776631886 12.9072260326272 0.1555417339272719 C 13.10227294078798 0.257763250088225 13.270636853881195 0.4059427078866352 13.398367471821635 0.5878009646980316 C 13.526098089762074 0.7696592215094279 13.609516498471054 0.97995990014799 13.641710057904325 1.2012751592336661 C 13.673903617337595 1.4225904183193423 13.653945812638105 1.6485477863634006 13.583489477479981 1.8604227229716066 Z M 1.8232512486415993 11.19375581945928 L 5.657088931181467 12.527089118957518 L 1.8232512486415993 13.860422418455757 C 1.6156095992697073 13.932315179808937 1.3941668871703523 13.95267987358947 1.177273534122677 13.919829969031547 C 0.9603801810750018 13.886980064473622 0.7542813358053153 13.801860965725192 0.5760566292840205 13.671526244050028 C 0.3978319227627256 13.541191522374865 0.25261310871682224 13.369395095590347 0.15243399099415644 13.170371675061759 C 0.05225487327149063 12.97134825453317 5.802883225214819e-16 12.750829055194698 0 12.527089118957518 C 5.802883225214819e-16 12.303349182720337 0.05225487327149063 12.082829983381867 0.15243399099415644 11.883806562853279 C 0.25261310871682224 11.68478314232469 0.3978319227627256 11.512986715540173 0.5760566292840205 11.382651993865009 C 0.7542813358053153 11.252317272189845 0.9603801810750018 11.167198173441415 1.177273534122677 11.13434826888349 C 1.3941668871703523 11.101498364325566 1.6156095992697073 11.1218630581061 1.8232512486415993 11.19375581945928 Z M 10.970103204404785 23.19375551494343 L 12.276796340942383 19.281755593870546 L 13.583489477479981 23.19375551494343 C 13.653945812638105 23.405630451551634 13.673903617337595 23.631586865921403 13.641710057904325 23.852902125007077 C 13.609516498471054 24.07421738409275 13.526098089762074 24.28451838062275 13.398367471821635 24.466376637434145 C 13.270636853881195 24.64823489424554 13.10227294078798 24.796416259392537 12.9072260326272 24.89863777555349 C 12.71217912446642 25.00085929171444 12.4960659257945 25.054178237915036 12.276796340942383 25.054178237915036 C 12.057526756090265 25.054178237915036 11.841413557418347 25.00085929171444 11.646366649257567 24.89863777555349 C 11.451319741096787 24.796416259392537 11.28295582800357 24.64823489424554 11.155225210063131 24.466376637434145 C 11.027494592122691 24.28451838062275 10.944076183413712 24.07421738409275 10.911882623980441 23.852902125007077 C 10.87968906454717 23.631586865921403 10.899646869246661 23.405630451551634 10.970103204404785 23.19375551494343 Z M 22.73034143324317 13.85775594513475 L 18.8965037507033 12.524422645636513 L 22.73034143324317 11.191089346138273 C 22.937983082615062 11.119196584785094 23.159424860094653 11.098830619438838 23.376318213142326 11.131680523996762 C 23.59321156619 11.164530428554686 23.79931072299961 11.249649527303115 23.977535429520906 11.379984248978278 C 24.1557601360422 11.510318970653442 24.30098081932763 11.682116669003683 24.401159937050295 11.881140089532272 C 24.50133905477296 12.08016351006086 24.553592681884766 12.300682709399332 24.553592681884766 12.524422645636513 C 24.553592681884766 12.748162581873693 24.50133905477296 12.968680509646441 24.401159937050295 13.16770393017503 C 24.30098081932763 13.366727350703618 24.1557601360422 13.538525049053858 23.977535429520906 13.668859770729021 C 23.79931072299961 13.799194492404185 23.59321156619 13.884313591152615 23.376318213142326 13.91716349571054 C 23.159424860094653 13.950013400268464 22.937983082615062 13.92964870648793 22.73034143324317 13.85775594513475 Z M 5.80866556431321 4.041756209487504 L 7.594914593465511 7.749755662714709 L 3.9610014243872977 5.92708954075438 C 3.76352144785775 5.828491748485235 3.5919610962332498 5.683214718922295 3.4605854417466255 5.503337720452955 C 3.3292097872600013 5.323460721983616 3.2418146371757364 5.114180971543074 3.2056660322019885 4.892899071189411 C 3.1695174272282407 4.671617170835748 3.185659853628057 4.444727069597484 3.2527515527722715 4.231092981416232 C 3.319843251916486 4.017458893234981 3.4359453599749705 3.823253296153113 3.5914047930263076 3.6646244390691143 C 3.7468642260776446 3.5059955819851156 3.937189571495449 3.387526446051251 4.14655522437606 3.3190669171170644 C 4.355920877256672 3.250607388182878 4.57827768642654 3.234135858600496 4.795138347253762 3.2710214420586126 C 5.011999008080984 3.3079070255167293 5.217097323423343 3.3970839413232685 5.39338035738741 3.5311380126062484 C 5.569663391351477 3.6651920838892282 5.712037768034263 3.840250116489517 5.80866556431321 4.041756209487504 L 5.80866556431321 4.041756209487504 Z M 3.9610014243872977 19.12575482471729 L 7.594914593465511 17.303088702756963 L 5.80866556431321 21.01109006333275 C 5.712037768034263 21.21259615633074 5.569663391351477 21.38765355314817 5.39338035738741 21.521707624431148 C 5.217097323423343 21.655761695714126 5.011999008080984 21.744938611520666 4.795138347253762 21.781824194978782 C 4.57827768642654 21.818709778436897 4.355920877256672 21.802236341505935 4.14655522437606 21.733776812571747 C 3.937189571495449 21.66531728363756 3.7468642260776446 21.546850055052282 3.5914047930263076 21.38822119796828 C 3.4359453599749705 21.22959234088428 3.319843251916486 21.03538547223669 3.2527515527722715 20.82175138405544 C 3.185659853628057 20.608117295874187 3.1695174272282407 20.38122655885306 3.2056660322019885 20.1599446584994 C 3.2418146371757364 19.938662758145735 3.3292097872600013 19.729383643488056 3.4605854417466255 19.549506645018717 C 3.5919610962332498 19.369629646549377 3.76352144785775 19.224352616986437 3.9610014243872977 19.12575482471729 L 3.9610014243872977 19.12575482471729 Z M 18.74361989606331 21.01109006333275 L 16.957370866911013 17.303088702756963 L 20.59128590522875 19.12575482471729 C 20.788765881758298 19.224352616986437 20.960325610302956 19.369629646549377 21.09170126478958 19.549506645018717 C 21.223076919276206 19.729383643488056 21.310472069360472 19.938662758145735 21.34662067433422 20.1599446584994 C 21.382769279307965 20.38122655885306 21.366624983668622 20.608117295874187 21.299533284524408 20.82175138405544 C 21.232441585380194 21.03538547223669 21.116341346561235 21.22959234088428 20.960881913509898 21.38822119796828 C 20.80542248045856 21.546850055052282 20.615095888881072 21.66531728363756 20.405730236000462 21.733776812571747 C 20.196364583119852 21.802236341505935 19.974007150870143 21.818709778436897 19.75714649004292 21.781824194978782 C 19.540285829215698 21.744938611520666 19.33518813695318 21.655761695714126 19.158905102989113 21.521707624431148 C 18.982622069025044 21.38765355314817 18.84024769234226 21.21259615633074 18.74361989606331 21.01109006333275 L 18.74361989606331 21.01109006333275 Z M 20.589977437560822 5.9244224316505125 L 16.95475767005421 7.748423061837068 L 18.742313920714754 4.039089100383636 C 18.838941716993702 3.837583007385649 18.981316093676483 3.6625256105682213 19.15759912764055 3.528471539285242 C 19.33388216160462 3.3944174680022625 19.538979853867136 3.305240552195723 19.75584051469436 3.268354968737606 C 19.972701175521582 3.2314693852794893 20.195058607771294 3.2479409148618714 20.404424260651904 3.316400443796058 C 20.613789913532514 3.3848599727302444 20.804114012790635 3.503329108664109 20.959573445841972 3.661957965748108 C 21.11503287889331 3.8205868228321065 21.231135610031636 4.014791784131113 21.29822730917585 4.228425872312364 C 21.365319008320064 4.442059960493616 21.381460811640036 4.668950697514741 21.34531220666629 4.890232597868404 C 21.309163601692543 5.111514498222067 21.22176845160828 5.320794248662609 21.090392797121655 5.500671247131948 C 20.95901714263503 5.680548245601288 20.78745741409037 5.825824639381367 20.589977437560822 5.9244224316505125 L 20.589977437560822 5.9244224316505125 Z M 12.276796340942383 18.527088966699594 C 9.034890738977545 18.527088966699594 6.396677226523193 15.835088963804967 6.396677226523193 12.527089118957518 C 6.396677226523193 9.219089274110068 9.034890738977545 6.527089271215443 12.276796340942383 6.527089271215443 C 15.51870194290722 6.527089271215443 18.156915455361574 9.219089274110068 18.156915455361574 12.527089118957518 C 18.156915455361574 15.835088963804967 15.51870194290722 18.527088966699594 12.276796340942383 18.527088966699594 Z M 12.276796340942383 9.193755870211922 C 10.474866572949658 9.193755870211922 9.010063499598388 10.688422567613996 9.010063499598388 12.527089118957518 C 9.010063499598388 14.36575567030104 10.474866572949658 15.860422367703116 12.276796340942383 15.860422367703116 C 14.078726108935108 15.860422367703116 15.543529182286377 14.36575567030104 15.543529182286377 12.527089118957518 C 15.543529182286377 10.688422567613996 14.078726108935108 9.193755870211922 12.276796340942383 9.193755870211922 Z" fill="rgb(255,159.0000057220459,90.00000223517418)"/>
        </svg>