<svg 
          width="11.083333969116211" 
          height="11.666667938232422" fill="none" 
          xmlns="http://www.w3.org/2000/svg">
          <path d="M 0.58333336679559 4.666667175292969 C 0.4286237331734122 4.666667175292969 0.2802505840191145 4.605208897597739 0.17085435973194762 4.4958126676627215 C 0.06145813544478075 4.3864164377277035 2.590520539394303e-16 4.2380434199907935 0 4.0833337783813475 C 0 3.9286241367719015 0.06145813544478075 3.780251119034992 0.17085435973194762 3.670854889099974 C 0.2802505840191145 3.561458659164956 0.4286237331734122 3.5000003814697265 0.58333336679559 3.500000381469727 L 5.25000030116031 3.500000381469727 C 5.559419568404666 3.5000003814697265 5.856165588558236 3.3770841042343083 6.0749580371325695 3.158291644364272 C 6.293750485706903 2.9394991844942355 6.41666703475149 2.642752870865377 6.41666703475149 2.3333335876464845 C 6.41666703475149 2.023914304427592 6.293750485706903 1.7271679907987336 6.0749580371325695 1.5083755309286973 C 5.856165588558236 1.2895830710586609 5.559419568404666 1.1666667938232431 5.25000030116031 1.1666667938232422 C 4.92916694246886 1.1666667938232425 4.637500363379199 1.295000227371861 4.427500342988136 1.5108335870107112 C 4.37441250070695 1.5674879663693944 4.310265840484234 1.6126481298287891 4.239027504901012 1.6435210509277567 C 4.16778916931779 1.6743939720267242 4.090974068870811 1.6903231396800038 4.013333630310865 1.6903231396800038 C 3.9356931917509184 1.6903231396800038 3.8588780913039407 1.6743939720267242 3.787639755720719 1.6435210509277567 C 3.716401420137497 1.6126481298287891 3.65225475991478 1.5674879663693944 3.5991669176335943 1.5108335870107112 C 3.371666912927965 1.28333357055983 3.371666912927965 0.910000135342284 3.5991669176335943 0.6825001188914029 C 4.025000286520576 0.2625000564257334 4.6083335837774095 0 5.25000030116031 0 C 5.868838835649021 2.590520673136348e-16 6.462331432266212 0.24583269354835696 6.8999163294148795 0.6834176132884295 C 7.337501226563547 1.121002533028502 7.583333768342669 1.7144950212086996 7.58333376834267 2.3333335876464845 C 7.583333768342669 2.9521721540842694 7.337501226563547 3.545664781341986 6.8999163294148795 3.983249701082059 C 6.462331432266212 4.420834620822132 5.868838835649021 4.666667175292968 5.25000030116031 4.666667175292969 L 0.58333336679559 4.666667175292969 Z M 9.33333386872944 5.833333969116211 C 9.488043502351617 5.833333969116211 9.636417068738453 5.771875691420982 9.74581329302562 5.662479461485964 C 9.855209517312787 5.553083231550946 9.91666723552503 5.404710213814036 9.91666723552503 5.25000057220459 C 9.91666723552503 5.095290930595144 9.855209517312787 4.946917912858234 9.74581329302562 4.837521682923216 C 9.636417068738453 4.728125452988198 9.488043502351617 4.666667175292969 9.33333386872944 4.666667175292969 C 9.170000525331288 4.666667175292969 9.02416772255775 4.730833822528519 8.919167712362219 4.835833838144936 C 8.865201404358306 4.889910915487036 8.801099657479769 4.932813663917352 8.730531875430499 4.962086185228509 C 8.659964093381229 4.991358706539667 8.584314871028809 5.006426323728193 8.507916620656033 5.006426323728192 C 8.431518370283257 5.006426323728193 8.355870260550937 4.991358706539667 8.285302478501666 4.962086185228509 C 8.214734696452396 4.932813663917352 8.150632949573858 4.889910915487036 8.096666641569945 4.835833838144936 C 7.874999964969171 4.608333821694055 7.874999964969171 4.240833853960043 8.096666641569945 4.013333837509163 C 8.411666672156539 3.6983337906599107 8.849167184024527 3.500000381469727 9.33333386872944 3.500000381469727 C 9.797462752211285 3.500000381469727 10.242582347444035 3.68437464955299 10.57077102899788 4.0125633480503895 C 10.898959710551726 4.340752046547789 11.08333396911621 4.785871664760942 11.083333969116211 5.25000057220459 C 11.08333396911621 5.714129479648239 10.898959710551726 6.159249097861391 10.57077102899788 6.48743779635879 C 10.242582347444035 6.81562649485619 9.797462752211285 7.000000762939454 9.33333386872944 7.000000762939454 L 1.16666673359118 7.000000762939454 C 1.0119570999690022 7.000000762939454 0.8635840898922169 6.938542485244224 0.75418786560505 6.829146255309206 C 0.6447916413178831 6.719750025374188 0.58333336679559 6.571377007637278 0.58333336679559 6.416667366027832 C 0.58333336679559 6.261957724418386 0.6447916413178831 6.113584706681476 0.75418786560505 6.004188476746458 C 0.8635840898922169 5.89479224681144 1.0119570999690022 5.833333969116211 1.16666673359118 5.833333969116211 L 9.33333386872944 5.833333969116211 Z M 8.750000501933851 9.333334350585938 L 0.58333336679559 9.333334350585938 C 0.4286237331734122 9.333334350585938 0.2802505840191145 9.271876629200788 0.17085435973194762 9.16248039926577 C 0.06145813544478075 9.05308416933075 2.590520539394303e-16 8.904710595283763 0 8.750000953674316 C 0 8.59529131206487 0.06145813544478075 8.446917738017882 0.17085435973194762 8.337521508082864 C 0.2802505840191145 8.228125278147845 0.4286237331734122 8.166667556762695 0.58333336679559 8.166667556762695 L 8.750000501933851 8.166667556762695 C 9.214129385415696 8.166667556762697 9.659248980648444 8.351041824845959 9.98743766220229 8.679230523343358 C 10.315626343756135 9.007419221840758 10.500000602320618 9.452538840053911 10.50000060232062 9.91666774749756 C 10.500000602320618 10.380796654941207 10.315626343756135 10.82591627315436 9.98743766220229 11.15410497165176 C 9.659248980648444 11.48229367014916 9.214129385415696 11.66666793823242 8.750000501933851 11.666667938232422 C 8.265833817228938 11.666667938232422 7.828333861671 11.468335085352317 7.513333831084405 11.153335038503064 C 7.291667154483632 10.925835022052183 7.291667154483632 10.558333941698015 7.513333831084405 10.330833925247134 C 7.567300139088317 10.276756847905034 7.631401329656806 10.233854099474717 7.701969111706076 10.20458157816356 C 7.772536893755345 10.175309056852404 7.848185003487667 10.160242552284036 7.924583253860442 10.160242552284036 C 8.000981504233218 10.160242552284036 8.076630726585638 10.175309056852404 8.147198508634908 10.20458157816356 C 8.217766290684178 10.233854099474717 8.281868037562717 10.276756847905034 8.33583434556663 10.330833925247134 C 8.440834355762162 10.435833940863551 8.586667158535699 10.50000114440918 8.750000501933851 10.50000114440918 C 8.904710135556028 10.50000114440918 9.053083701942862 10.438543423024031 9.162479926230029 10.329147193089012 C 9.271876150517196 10.219750963153993 9.33333386872944 10.071377389107006 9.33333386872944 9.91666774749756 C 9.33333386872944 9.761958105888112 9.271876150517196 9.613584531841125 9.162479926230029 9.504188301906106 C 9.053083701942862 9.394792071971088 8.904710135556028 9.333334350585938 8.750000501933851 9.333334350585938 Z" fill="rgb(255,255,255)"/>
        </svg>